<svg width="803" height="866" viewBox="0 0 803 866" fill="none" xmlns="http://www.w3.org/2000/svg">
<g opacity="0.13" clip-path="url(#clip0_46_26146)">
<path fill-rule="evenodd" clip-rule="evenodd" d="M444.729 737.17C483.787 737.17 521.142 729.741 555.405 716.153L678.385 796.664C611.121 840.538 530.859 866 444.729 866C285.466 866 146.396 778.949 72.0018 649.547L182.867 585.101C235.176 676.024 332.854 737.17 444.729 737.17Z" fill="#93278F"/>
<path fill-rule="evenodd" clip-rule="evenodd" d="M731.954 110.543L605.314 433.031L731.954 755.456L531.993 624.531L239.339 433.031L531.993 241.469L731.954 110.543Z" fill="#93278F"/>
<path fill-rule="evenodd" clip-rule="evenodd" d="M444.727 128.83C332.852 128.83 235.175 189.975 182.865 280.899L72.0001 216.452C146.457 87.0508 285.465 0 444.727 0C530.92 0 611.119 25.4613 678.446 69.3359L555.403 149.847C521.14 136.259 483.848 128.83 444.727 128.83Z" fill="#93278F"/>
<path fill-rule="evenodd" clip-rule="evenodd" d="M780.418 703.962L721.736 555.004L673.654 432.968L721.736 310.995L780.418 162.038C839.605 236.199 875.067 330.425 875.067 433.032C875.067 535.575 839.605 629.801 780.418 703.962Z" fill="#93278F"/>
</g>
<defs>
<clipPath id="clip0_46_26146">
<rect width="803" height="866" fill="white" transform="matrix(-1 0 0 1 803 0)"/>
</clipPath>
</defs>
</svg>
