<svg width="70" height="22" viewBox="0 0 70 22" fill="none" xmlns="http://www.w3.org/2000/svg">
<path d="M8.05925 4.16489H4.06002V6.23061H7.7053V8.95312H4.06002V13.8084H0.73584V1.44238H8.05925V4.16489Z" fill="white"/>
<path d="M9.5332 2.16632C9.5332 1.9368 9.57699 1.7214 9.66821 1.52013C9.75944 1.31885 9.8835 1.13876 10.0404 0.986923C10.1973 0.835084 10.3834 0.715025 10.5914 0.626746C10.7994 0.538468 11.022 0.496094 11.2591 0.496094C11.4963 0.496094 11.7189 0.538468 11.9269 0.626746C12.1349 0.715025 12.321 0.835084 12.4779 0.986923C12.6348 1.13876 12.7589 1.31885 12.8501 1.52013C12.9413 1.7214 12.9851 1.9368 12.9851 2.16632C12.9851 2.39585 12.9413 2.61125 12.8501 2.81252C12.7589 3.0138 12.6348 3.19389 12.4779 3.34573C12.321 3.49757 12.1349 3.61762 11.9269 3.7059C11.7189 3.79418 11.4963 3.83656 11.2591 3.83656C11.022 3.83656 10.7994 3.79418 10.5914 3.7059C10.3834 3.61762 10.1973 3.49757 10.0404 3.34573C9.8835 3.19389 9.75944 3.0138 9.66821 2.81252C9.57699 2.61125 9.5332 2.39585 9.5332 2.16632ZM12.8063 5.39732V13.812H9.73754V5.39732H12.8063Z" fill="white"/>
<path d="M14.9084 5.39737H17.9772V6.46378C18.3968 5.97295 18.8201 5.64102 19.247 5.47153C19.6776 5.30203 20.1811 5.21729 20.754 5.21729C21.3634 5.21729 21.8888 5.31263 22.323 5.50331C22.7573 5.69399 23.1295 5.96589 23.4323 6.31547C23.6804 6.60149 23.8519 6.91576 23.9395 7.26535C24.0307 7.61493 24.0745 8.01395 24.0745 8.4624V13.8121H21.0058V9.56412C21.0058 9.14745 20.9729 8.81199 20.9109 8.55421C20.8489 8.29644 20.7394 8.09163 20.5788 7.9398C20.4438 7.80914 20.2906 7.71733 20.1227 7.66084C19.9549 7.60787 19.7724 7.57962 19.579 7.57962C19.0609 7.57962 18.6595 7.73146 18.3822 8.03161C18.1049 8.33175 17.9662 8.76255 17.9662 9.32047V13.8156H14.8975V5.4009L14.9084 5.39737Z" fill="white"/>
<path d="M25.9609 2.16632C25.9609 1.9368 26.0047 1.7214 26.096 1.52013C26.1872 1.31885 26.3112 1.13876 26.4681 0.986923C26.625 0.835084 26.8111 0.715025 27.0191 0.626746C27.2271 0.538468 27.4497 0.496094 27.6869 0.496094C27.9241 0.496094 28.1466 0.538468 28.3546 0.626746C28.5626 0.715025 28.7487 0.835084 28.9056 0.986923C29.0625 1.13876 29.1866 1.31885 29.2778 1.52013C29.369 1.7214 29.4128 1.9368 29.4128 2.16632C29.4128 2.39585 29.369 2.61125 29.2778 2.81252C29.1866 3.0138 29.0625 3.19389 28.9056 3.34573C28.7487 3.49757 28.5626 3.61762 28.3546 3.7059C28.1466 3.79418 27.9241 3.83656 27.6869 3.83656C27.4497 3.83656 27.2271 3.79418 27.0191 3.7059C26.8111 3.61762 26.625 3.49757 26.4681 3.34573C26.3112 3.19389 26.1872 3.0138 26.096 2.81252C26.0047 2.61125 25.9609 2.39585 25.9609 2.16632ZM29.234 5.39732V13.812H26.1653V5.39732H29.234Z" fill="white"/>
<path d="M36.7255 4.16489V13.812H33.4013V4.16489H30.6719V1.44238H39.4549V4.16489H36.7255Z" fill="white"/>
<path d="M40.2832 5.397H43.352V6.77414C43.6804 6.27272 44.0817 5.8843 44.5561 5.61593C45.0305 5.34756 45.5851 5.21338 46.2164 5.21338H46.4791C46.574 5.21338 46.6834 5.22397 46.8111 5.24516V8.0842C46.4025 7.88645 45.9646 7.78758 45.4902 7.78758C44.7787 7.78758 44.2423 7.99239 43.8884 8.402C43.5308 8.81161 43.3556 9.41191 43.3556 10.1994V13.8082H40.2869V5.39347L40.2832 5.397Z" fill="white"/>
<path d="M51.0471 10.1044C51.0471 11.3827 51.6675 12.0253 52.9117 12.0253C53.5795 12.0253 54.0831 11.764 54.4188 11.2379H57.3853C56.7869 13.1624 55.2872 14.1264 52.8935 14.1264C52.1601 14.1264 51.485 14.0204 50.8756 13.805C50.2663 13.5932 49.7408 13.2895 49.3066 12.894C48.8724 12.4985 48.5367 12.0289 48.2995 11.4816C48.0623 10.9342 47.9419 10.3233 47.9419 9.64536C47.9419 8.96738 48.055 8.31412 48.2812 7.74913C48.5075 7.18768 48.8286 6.70745 49.2482 6.31196C49.6678 5.91647 50.1714 5.61632 50.7662 5.40092C51.3609 5.18906 52.0287 5.07959 52.7731 5.07959C53.5175 5.07959 54.1706 5.18552 54.7581 5.40092C55.3456 5.61279 55.8418 5.92353 56.2505 6.32608C56.6592 6.72863 56.9694 7.22652 57.181 7.80916C57.3963 8.39533 57.5021 9.05213 57.5021 9.7866V10.0973H51.0435L51.0471 10.1044ZM54.6413 8.38121C54.5392 7.96453 54.3312 7.63261 54.0137 7.3819C53.6963 7.13118 53.3131 7.00406 52.8607 7.00406C52.3863 7.00406 51.9995 7.12412 51.7003 7.36424C51.4011 7.60436 51.2113 7.94335 51.1311 8.38121H54.6413Z" fill="white"/>
<path d="M62.3227 0.195801V8.43043L65.5447 5.39717H69.7482L65.3914 9.28496L70.0037 13.8119H65.6979L62.3227 10.3831V13.8119H59.2539V0.195801H62.3227Z" fill="white"/>
<path d="M2.8561 16.63H1.99496V19.7974H1.58992V16.63H0.732422V16.2769H2.8561V16.63Z" fill="white"/>
<path d="M4.77916 18.8547C4.77916 19.2042 4.70619 19.4585 4.56023 19.6209C4.41427 19.7834 4.18804 19.8646 3.88153 19.8646C3.57502 19.8646 3.34514 19.7834 3.19918 19.6209C3.05322 19.4585 2.98389 19.2042 2.98389 18.8547V17.6152H3.37068V18.8405C3.37068 19.0736 3.41081 19.2431 3.48744 19.3455C3.56407 19.4479 3.69543 19.5044 3.88153 19.5044C4.06762 19.5044 4.19898 19.4514 4.27561 19.349C4.35224 19.2466 4.38873 19.0771 4.38873 18.8405V17.6152H4.77916V18.8547Z" fill="white"/>
<path d="M6.72401 17.5902L6.63279 17.961C6.60359 17.9433 6.5744 17.9327 6.54156 17.9222C6.50872 17.9151 6.47224 17.908 6.43575 17.908C6.246 17.908 6.10369 17.9857 6.00517 18.1446C5.9103 18.3035 5.85921 18.5366 5.85921 18.8508V19.7937H5.47607V17.6149H5.85921V17.9963C5.91395 17.8409 5.99422 17.7244 6.09639 17.6538C6.19856 17.5832 6.33722 17.5479 6.51237 17.5479C6.55251 17.5479 6.59265 17.5514 6.63279 17.5584C6.67292 17.5655 6.70212 17.5761 6.72401 17.5867V17.5902Z" fill="white"/>
<path d="M8.88051 19.7937H8.49373V18.4907C8.49373 18.2788 8.45359 18.1234 8.37696 18.0246C8.30033 17.9257 8.17627 17.8762 8.00477 17.8762C7.81138 17.8762 7.66542 17.9504 7.56325 18.0987C7.46108 18.247 7.40999 18.4624 7.40999 18.7449V19.7901H7.02686V17.6114H7.40999V17.9327C7.47568 17.8021 7.57055 17.7068 7.69096 17.6432C7.81138 17.5796 7.96098 17.5479 8.13248 17.5479C8.36236 17.5479 8.54481 17.622 8.67618 17.7703C8.80754 17.9186 8.87322 18.1234 8.87322 18.3918V19.7972L8.88051 19.7937Z" fill="white"/>
<path d="M10.1141 16.7568C10.1141 16.8274 10.0885 16.8875 10.0338 16.9369C9.98269 16.9863 9.91701 17.011 9.84768 17.011C9.77835 17.011 9.71267 16.9863 9.66159 16.9369C9.6105 16.8875 9.58496 16.8274 9.58496 16.7568C9.58496 16.6862 9.6105 16.6261 9.66159 16.5767C9.71267 16.5273 9.77471 16.499 9.84768 16.499C9.92066 16.499 9.98269 16.5237 10.0338 16.5767C10.0849 16.6261 10.1141 16.6897 10.1141 16.7568ZM10.0411 19.7971H9.65429V17.6184H10.0411V19.7971Z" fill="white"/>
<path d="M12.6901 19.7937H12.3033V18.4907C12.3033 18.2788 12.2632 18.1234 12.1865 18.0246C12.1099 17.9257 11.9858 17.8762 11.8143 17.8762C11.6209 17.8762 11.475 17.9504 11.3728 18.0987C11.2706 18.247 11.2196 18.4624 11.2196 18.7449V19.7901H10.8364V17.6114H11.2196V17.9327C11.2852 17.8021 11.3801 17.7068 11.5005 17.6432C11.6209 17.5796 11.7706 17.5479 11.9421 17.5479C12.1719 17.5479 12.3544 17.622 12.4857 17.7703C12.6171 17.9186 12.6828 18.1234 12.6828 18.3918V19.7972L12.6901 19.7937Z" fill="white"/>
<path d="M15.4632 19.9104C15.4632 20.2988 15.372 20.5884 15.1895 20.7755C15.0071 20.9627 14.7225 21.0545 14.3357 21.0545C14.0328 21.0545 13.792 20.9909 13.6095 20.8638C13.4307 20.7367 13.3213 20.5601 13.2884 20.3306H13.6898C13.7154 20.4507 13.781 20.5425 13.8905 20.606C14 20.6661 14.1496 20.6979 14.3393 20.6979C14.6021 20.6979 14.7918 20.6378 14.9049 20.5178C15.018 20.3977 15.0764 20.207 15.0764 19.9422V19.4302C14.9998 19.5714 14.8903 19.6774 14.7517 19.7515C14.613 19.8257 14.4488 19.861 14.2591 19.861C13.9452 19.861 13.6862 19.7515 13.4855 19.529C13.2848 19.3101 13.1826 19.0276 13.1826 18.6816C13.1826 18.3355 13.2848 18.0707 13.4891 17.8588C13.6935 17.647 13.9525 17.541 14.2736 17.541C14.4561 17.541 14.613 17.5763 14.7517 17.6434C14.8903 17.7105 14.9998 17.8094 15.0801 17.9365V17.6046H15.4668V19.8998L15.4632 19.9104ZM15.0764 18.678C15.0764 18.4379 15.0071 18.2508 14.8721 18.1131C14.7371 17.9753 14.5546 17.9047 14.3284 17.9047C14.1021 17.9047 13.9197 17.9753 13.781 18.1201C13.6387 18.2649 13.5694 18.4556 13.5694 18.6922C13.5694 18.9288 13.6387 19.1265 13.7774 19.2783C13.916 19.4302 14.0948 19.5043 14.3101 19.5043C14.5254 19.5043 14.7115 19.4266 14.8575 19.2713C15.0034 19.1159 15.0764 18.9182 15.0764 18.678Z" fill="white"/>
<path d="M20.5789 19.5677C20.4439 19.6524 20.2651 19.7231 20.0389 19.7796C19.8127 19.8361 19.6083 19.8678 19.4222 19.8678C18.8639 19.8678 18.4042 19.6948 18.0356 19.3488C17.6671 19.0027 17.4883 18.5649 17.4883 18.0317C17.4883 17.4985 17.6744 17.0818 18.0466 16.7322C18.4188 16.3826 18.8785 16.2061 19.4259 16.2061C19.6521 16.2061 19.8674 16.2343 20.0681 16.2873C20.2688 16.3402 20.4403 16.4179 20.5753 16.5133V16.9547C20.4257 16.8381 20.2542 16.7463 20.0571 16.6792C19.8601 16.6121 19.6667 16.5768 19.4733 16.5768C19.0245 16.5768 18.6486 16.7145 18.3458 16.9935C18.0429 17.2725 17.8897 17.6185 17.8897 18.0352C17.8897 18.4519 18.0356 18.805 18.3275 19.0839C18.6195 19.3629 18.9807 19.5006 19.4113 19.5006C19.6229 19.5006 19.8345 19.4653 20.0425 19.3982C20.2542 19.3311 20.4293 19.2393 20.5753 19.1192V19.5677H20.5789Z" fill="white"/>
<path d="M23.2572 18.699C23.2572 19.0239 23.1404 19.2993 22.9069 19.5253C22.6734 19.7513 22.3888 19.8643 22.0531 19.8643C21.7174 19.8643 21.4364 19.7513 21.2065 19.5253C20.973 19.2993 20.8599 19.0239 20.8599 18.699C20.8599 18.3741 20.973 18.1022 21.2029 17.8798C21.4327 17.6608 21.7174 17.5479 22.0531 17.5479C22.3888 17.5479 22.6807 17.6573 22.9106 17.8798C23.1404 18.1022 23.2572 18.3741 23.2572 18.6955V18.699ZM22.8741 18.699C22.8741 18.4695 22.7938 18.2788 22.6369 18.1305C22.48 17.9822 22.2866 17.9045 22.0567 17.9045C21.8268 17.9045 21.6298 17.9787 21.4765 18.1305C21.3196 18.2788 21.243 18.4695 21.243 18.699C21.243 18.9285 21.3233 19.1227 21.4802 19.2781C21.6371 19.4335 21.8305 19.5112 22.0567 19.5112C22.2829 19.5112 22.4836 19.4335 22.6405 19.2781C22.7974 19.1227 22.8741 18.9285 22.8741 18.699Z" fill="white"/>
<path d="M26.764 19.7937H26.3773V18.4871C26.3773 18.2788 26.3408 18.127 26.2714 18.0281C26.2021 17.9292 26.0926 17.8798 25.9467 17.8798C25.7715 17.8798 25.6438 17.9433 25.5672 18.0705C25.4906 18.1976 25.4541 18.413 25.4541 18.7167V19.7937H25.0709V18.4871C25.0709 18.2682 25.0417 18.1128 24.9797 18.0175C24.9177 17.9222 24.8119 17.8762 24.6623 17.8762C24.4835 17.8762 24.3521 17.9469 24.2682 18.0881C24.1842 18.2294 24.1405 18.4448 24.1405 18.7414V19.7937H23.7573V17.6149H24.1405V17.9045C24.1988 17.7844 24.2791 17.6962 24.3886 17.6361C24.4944 17.5761 24.6294 17.5479 24.79 17.5479C24.9359 17.5479 25.0636 17.5796 25.1695 17.6467C25.2753 17.7103 25.3483 17.8056 25.3957 17.9327C25.4541 17.8092 25.5453 17.7138 25.6621 17.6467C25.7788 17.5796 25.9211 17.5479 26.0817 17.5479C26.297 17.5479 26.4685 17.6185 26.5889 17.7597C26.7093 17.901 26.7713 18.1022 26.7713 18.36V19.7937H26.764Z" fill="white"/>
<path d="M30.4677 19.7937H30.0809V18.4871C30.0809 18.2788 30.0444 18.127 29.9751 18.0281C29.9057 17.9292 29.7963 17.8798 29.6503 17.8798C29.4751 17.8798 29.3474 17.9433 29.2708 18.0705C29.1942 18.1976 29.1577 18.413 29.1577 18.7167V19.7937H28.7746V18.4871C28.7746 18.2682 28.7454 18.1128 28.6833 18.0175C28.6213 17.9222 28.5155 17.8762 28.3659 17.8762C28.1871 17.8762 28.0557 17.9469 27.9718 18.0881C27.8879 18.2294 27.8441 18.4448 27.8441 18.7414V19.7937H27.4609V17.6149H27.8441V17.9045C27.9025 17.7844 27.9827 17.6962 28.0922 17.6361C28.198 17.5761 28.333 17.5479 28.4936 17.5479C28.6395 17.5479 28.7673 17.5796 28.8731 17.6467C28.9789 17.7103 29.0519 17.8056 29.0993 17.9327C29.1577 17.8092 29.2489 17.7138 29.3657 17.6467C29.4824 17.5796 29.6248 17.5479 29.7853 17.5479C30.0006 17.5479 30.1721 17.6185 30.2925 17.7597C30.4129 17.901 30.475 18.1022 30.475 18.36V19.7937H30.4677Z" fill="white"/>
<path d="M32.9012 18.8547C32.9012 19.2042 32.8283 19.4585 32.6823 19.6209C32.5363 19.7834 32.3101 19.8646 32.0036 19.8646C31.6971 19.8646 31.4672 19.7834 31.3212 19.6209C31.1753 19.4585 31.106 19.2042 31.106 18.8547V17.6152H31.4927V18.8405C31.4927 19.0736 31.5329 19.2431 31.6095 19.3455C31.6861 19.4479 31.8175 19.5044 32.0036 19.5044C32.1897 19.5044 32.321 19.4514 32.3977 19.349C32.4743 19.2466 32.5108 19.0771 32.5108 18.8405V17.6152H32.9012V18.8547Z" fill="white"/>
<path d="M34.3247 17.9507H33.9671V19.7939H33.584V17.9507H33.314V17.6152H33.584V16.7324H33.9671V17.6152H34.3247V17.9507Z" fill="white"/>
<path d="M36.7001 18.7626H34.8902C34.9048 18.9992 34.9778 19.1792 35.1055 19.3099C35.2332 19.4405 35.4084 19.5041 35.6236 19.5041C35.7878 19.5041 35.9302 19.4723 36.0433 19.4088C36.1564 19.3452 36.2513 19.2499 36.3169 19.1263L36.638 19.2887C36.5359 19.4794 36.3972 19.6206 36.2257 19.7195C36.0542 19.8148 35.8499 19.8643 35.6163 19.8643C35.277 19.8643 35.007 19.7583 34.8063 19.5429C34.6056 19.3275 34.5034 19.0451 34.5034 18.6919C34.5034 18.3635 34.6092 18.0916 34.8245 17.8727C35.0362 17.6538 35.3025 17.5479 35.6127 17.5479C35.9229 17.5479 36.1929 17.6467 36.3936 17.848C36.5943 18.0457 36.6964 18.307 36.6964 18.6319V18.7626H36.7001ZM36.3169 18.4977C36.295 18.3106 36.2257 18.1658 36.1017 18.0599C35.9776 17.9539 35.817 17.9045 35.62 17.9045C35.4229 17.9045 35.2697 17.9575 35.1383 18.0669C35.007 18.1764 34.9303 18.3176 34.9048 18.4977H36.3206H36.3169Z" fill="white"/>
<path d="M38.5536 19.2075C38.5536 19.4088 38.477 19.5677 38.3274 19.6877C38.1778 19.8078 37.9698 19.8678 37.7107 19.8678C37.5137 19.8678 37.3495 19.829 37.2108 19.7513C37.0758 19.6736 36.9773 19.5641 36.9116 19.4158L37.24 19.2146C37.2838 19.3205 37.3495 19.3982 37.4298 19.4511C37.51 19.5041 37.6122 19.5288 37.7326 19.5288C37.864 19.5288 37.9698 19.5006 38.0501 19.4476C38.1267 19.3946 38.1668 19.3205 38.1668 19.2287C38.1668 19.1263 38.1304 19.0486 38.061 18.9956C37.9881 18.9427 37.8494 18.8791 37.6414 18.8085C37.4371 18.7343 37.2875 18.646 37.1853 18.5366C37.0831 18.4271 37.032 18.3 37.032 18.1552C37.032 17.9681 37.0977 17.8197 37.2254 17.7103C37.3568 17.6008 37.5356 17.5479 37.7691 17.5479C37.9406 17.5479 38.0793 17.5796 38.1924 17.6467C38.3055 17.7138 38.3967 17.8162 38.4624 17.9575L38.145 18.1446C38.1048 18.0528 38.0537 17.9857 37.9881 17.9433C37.926 17.901 37.8457 17.8798 37.7509 17.8798C37.6414 17.8798 37.5575 17.9045 37.4954 17.9504C37.4334 17.9963 37.4042 18.0634 37.4042 18.1446C37.4042 18.2258 37.4371 18.2965 37.4991 18.353C37.5611 18.4095 37.6779 18.4624 37.8457 18.5154C38.0939 18.5931 38.2727 18.6849 38.3821 18.7908C38.4916 18.8967 38.5463 19.0345 38.5463 19.2004L38.5536 19.2075Z" fill="white"/>
<path d="M41.1336 16.7568C41.1336 16.8274 41.108 16.8875 41.0533 16.9369C41.0022 16.9863 40.9365 17.011 40.8672 17.011C40.7979 17.011 40.7322 16.9863 40.6811 16.9369C40.63 16.8875 40.6045 16.8274 40.6045 16.7568C40.6045 16.6862 40.63 16.6261 40.6811 16.5767C40.7322 16.5273 40.7942 16.499 40.8672 16.499C40.9402 16.499 41.0022 16.5237 41.0533 16.5767C41.1044 16.6261 41.1336 16.6897 41.1336 16.7568ZM41.0606 19.7971H40.6738V17.6184H41.0606V19.7971Z" fill="white"/>
<path d="M43.7096 19.7937H43.3228V18.4907C43.3228 18.2788 43.2827 18.1234 43.2061 18.0246C43.1294 17.9257 43.0054 17.8762 42.8339 17.8762C42.6405 17.8762 42.4945 17.9504 42.3924 18.0987C42.2902 18.247 42.2391 18.4624 42.2391 18.7449V19.7901H41.856V17.6114H42.2391V17.9327C42.3048 17.8021 42.3997 17.7068 42.5201 17.6432C42.6405 17.5796 42.7901 17.5479 42.9616 17.5479C43.1915 17.5479 43.3739 17.622 43.5053 17.7703C43.6366 17.9186 43.7023 18.1234 43.7023 18.3918V19.7972L43.7096 19.7937Z" fill="white"/>
<path d="M45.1328 17.9507H44.7752V19.7939H44.3921V17.9507H44.1221V17.6152H44.3921V16.7324H44.7752V17.6152H45.1328V17.9507Z" fill="white"/>
<path d="M47.7162 18.699C47.7162 19.0239 47.5994 19.2993 47.3659 19.5253C47.1324 19.7513 46.8478 19.8643 46.5121 19.8643C46.1763 19.8643 45.8954 19.7513 45.6655 19.5253C45.432 19.2993 45.3188 19.0239 45.3188 18.699C45.3188 18.3741 45.432 18.1022 45.6618 17.8798C45.8917 17.6608 46.1763 17.5479 46.5121 17.5479C46.8478 17.5479 47.1397 17.6573 47.3695 17.8798C47.5994 18.1022 47.7162 18.3741 47.7162 18.6955V18.699ZM47.3331 18.699C47.3331 18.4695 47.2528 18.2788 47.0959 18.1305C46.939 17.9822 46.7456 17.9045 46.5157 17.9045C46.2858 17.9045 46.0888 17.9787 45.9355 18.1305C45.7786 18.2788 45.702 18.4695 45.702 18.699C45.702 18.9285 45.7823 19.1227 45.9392 19.2781C46.0961 19.4335 46.2895 19.5112 46.5157 19.5112C46.7419 19.5112 46.9426 19.4335 47.0995 19.2781C47.2564 19.1227 47.3331 18.9285 47.3331 18.699Z" fill="white"/>
<path d="M53.4742 19.7937H53.0655L52.7152 17.3926L51.522 19.8926L50.3288 17.3926L49.9785 19.7937H49.5625L50.1463 16.1743L51.5256 19.0557L52.894 16.1743L53.4705 19.7937H53.4742Z" fill="white"/>
<path d="M56.0282 18.7626H54.2183C54.2329 18.9992 54.3059 19.1792 54.4336 19.3099C54.5613 19.4405 54.7365 19.5041 54.9518 19.5041C55.116 19.5041 55.2583 19.4723 55.3714 19.4088C55.4845 19.3452 55.5794 19.2499 55.6451 19.1263L55.9662 19.2887C55.864 19.4794 55.7253 19.6206 55.5538 19.7195C55.3823 19.8148 55.178 19.8643 54.9445 19.8643C54.6051 19.8643 54.3351 19.7583 54.1344 19.5429C53.9337 19.3275 53.8315 19.0451 53.8315 18.6919C53.8315 18.3635 53.9374 18.0916 54.1527 17.8727C54.3643 17.6538 54.6307 17.5479 54.9408 17.5479C55.251 17.5479 55.521 17.6467 55.7217 17.848C55.9224 18.0457 56.0246 18.307 56.0246 18.6319V18.7626H56.0282ZM55.6451 18.4977C55.6232 18.3106 55.5538 18.1658 55.4298 18.0599C55.3057 17.9539 55.1452 17.9045 54.9481 17.9045C54.7511 17.9045 54.5978 17.9575 54.4665 18.0669C54.3351 18.1764 54.2585 18.3176 54.2329 18.4977H55.6487H55.6451Z" fill="white"/>
<path d="M59.535 19.7937H59.1483V18.4871C59.1483 18.2788 59.1118 18.127 59.0424 18.0281C58.9731 17.9292 58.8636 17.8798 58.7177 17.8798C58.5425 17.8798 58.4148 17.9433 58.3382 18.0705C58.2616 18.1976 58.2251 18.413 58.2251 18.7167V19.7937H57.8419V18.4871C57.8419 18.2682 57.8127 18.1128 57.7507 18.0175C57.6887 17.9222 57.5829 17.8762 57.4333 17.8762C57.2545 17.8762 57.1231 17.9469 57.0392 18.0881C56.9552 18.2294 56.9115 18.4448 56.9115 18.7414V19.7937H56.5283V17.6149H56.9115V17.9045C56.9698 17.7844 57.0501 17.6962 57.1596 17.6361C57.2654 17.5761 57.4004 17.5479 57.561 17.5479C57.7069 17.5479 57.8346 17.5796 57.9405 17.6467C58.0463 17.7103 58.1193 17.8056 58.1667 17.9327C58.2251 17.8092 58.3163 17.7138 58.4331 17.6467C58.5498 17.5796 58.6921 17.5479 58.8527 17.5479C59.068 17.5479 59.2395 17.6185 59.3599 17.7597C59.4803 17.901 59.5423 18.1022 59.5423 18.36V19.7937H59.535Z" fill="white"/>
<path d="M62.4286 18.699C62.4286 19.0239 62.3118 19.2993 62.0783 19.5253C61.8448 19.7513 61.5601 19.8643 61.2244 19.8643C60.8887 19.8643 60.6078 19.7513 60.3779 19.5253C60.1444 19.2993 60.0312 19.0239 60.0312 18.699C60.0312 18.3741 60.1444 18.1022 60.3743 17.8798C60.6041 17.6608 60.8887 17.5479 61.2244 17.5479C61.5601 17.5479 61.8521 17.6573 62.0819 17.8798C62.3118 18.1022 62.4286 18.3741 62.4286 18.6955V18.699ZM62.0455 18.699C62.0455 18.4695 61.9652 18.2788 61.8083 18.1305C61.6514 17.9822 61.458 17.9045 61.2281 17.9045C60.9982 17.9045 60.8012 17.9787 60.6479 18.1305C60.491 18.2788 60.4144 18.4695 60.4144 18.699C60.4144 18.9285 60.4947 19.1227 60.6516 19.2781C60.8085 19.4335 61.0019 19.5112 61.2281 19.5112C61.4543 19.5112 61.655 19.4335 61.8119 19.2781C61.9688 19.1227 62.0455 18.9285 62.0455 18.699Z" fill="white"/>
<path d="M64.1693 17.5902L64.0781 17.961C64.0489 17.9433 64.0197 17.9327 63.9869 17.9222C63.954 17.9151 63.9175 17.908 63.8811 17.908C63.6913 17.908 63.549 17.9857 63.4505 18.1446C63.3556 18.3035 63.3045 18.5366 63.3045 18.8508V19.7937H62.9214V17.6149H63.3045V17.9963C63.3593 17.8409 63.4395 17.7244 63.5417 17.6538C63.6439 17.5832 63.7825 17.5479 63.9577 17.5479C63.9978 17.5479 64.038 17.5514 64.0781 17.5584C64.1182 17.5655 64.1474 17.5761 64.1693 17.5867V17.5902Z" fill="white"/>
<path d="M64.9681 16.7568C64.9681 16.8274 64.9425 16.8875 64.8878 16.9369C64.8367 16.9863 64.771 17.011 64.7017 17.011C64.6324 17.011 64.5667 16.9863 64.5156 16.9369C64.4645 16.8875 64.439 16.8274 64.439 16.7568C64.439 16.6862 64.4645 16.6261 64.5156 16.5767C64.5667 16.5273 64.6287 16.499 64.7017 16.499C64.7747 16.499 64.8367 16.5237 64.8878 16.5767C64.9389 16.6261 64.9681 16.6897 64.9681 16.7568ZM64.8951 19.7971H64.5083V17.6184H64.8951V19.7971Z" fill="white"/>
<path d="M67.6322 18.7626H65.8223C65.8369 18.9992 65.9099 19.1792 66.0376 19.3099C66.1653 19.4405 66.3405 19.5041 66.5558 19.5041C66.72 19.5041 66.8623 19.4723 66.9754 19.4088C67.0885 19.3452 67.1834 19.2499 67.2491 19.1263L67.5702 19.2887C67.468 19.4794 67.3293 19.6206 67.1578 19.7195C66.9863 19.8148 66.782 19.8643 66.5485 19.8643C66.2091 19.8643 65.9391 19.7583 65.7384 19.5429C65.5377 19.3275 65.4355 19.0451 65.4355 18.6919C65.4355 18.3635 65.5414 18.0916 65.7567 17.8727C65.9683 17.6538 66.2347 17.5479 66.5448 17.5479C66.855 17.5479 67.125 17.6467 67.3257 17.848C67.5264 18.0457 67.6286 18.307 67.6286 18.6319V18.7626H67.6322ZM67.2491 18.4977C67.2272 18.3106 67.1578 18.1658 67.0338 18.0599C66.9097 17.9539 66.7492 17.9045 66.5521 17.9045C66.3551 17.9045 66.2018 17.9575 66.0705 18.0669C65.9391 18.1764 65.8625 18.3176 65.8369 18.4977H67.2527H67.2491Z" fill="white"/>
<path d="M69.4858 19.2075C69.4858 19.4088 69.4091 19.5677 69.2595 19.6877C69.1099 19.8078 68.9019 19.8678 68.6429 19.8678C68.4458 19.8678 68.2816 19.829 68.143 19.7513C68.0079 19.6736 67.9094 19.5641 67.8438 19.4158L68.1722 19.2146C68.2159 19.3205 68.2816 19.3982 68.3619 19.4511C68.4422 19.5041 68.5443 19.5288 68.6648 19.5288C68.7961 19.5288 68.9019 19.5006 68.9822 19.4476C69.0588 19.3946 69.099 19.3205 69.099 19.2287C69.099 19.1263 69.0625 19.0486 68.9932 18.9956C68.9202 18.9427 68.7815 18.8791 68.5735 18.8085C68.3692 18.7343 68.2196 18.646 68.1174 18.5366C68.0152 18.4271 67.9642 18.3 67.9642 18.1552C67.9642 17.9681 68.0298 17.8197 68.1576 17.7103C68.2889 17.6008 68.4677 17.5479 68.7012 17.5479C68.8727 17.5479 69.0114 17.5796 69.1245 17.6467C69.2376 17.7138 69.3289 17.8162 69.3945 17.9575L69.0771 18.1446C69.037 18.0528 68.9859 17.9857 68.9202 17.9433C68.8581 17.901 68.7779 17.8798 68.683 17.8798C68.5735 17.8798 68.4896 17.9045 68.4276 17.9504C68.3655 17.9963 68.3363 18.0634 68.3363 18.1446C68.3363 18.2258 68.3692 18.2965 68.4312 18.353C68.4933 18.4095 68.61 18.4624 68.7779 18.5154C69.026 18.5931 69.2048 18.6849 69.3143 18.7908C69.4237 18.8967 69.4785 19.0345 69.4785 19.2004L69.4858 19.2075Z" fill="white"/>
</svg>
