<svg width="92" height="29" viewBox="0 0 92 29" fill="none" xmlns="http://www.w3.org/2000/svg">
<path d="M9.74205 5.69469H4.43137V8.52963H9.27204V12.2659H4.43137V18.9293H0.0170898V1.95837H9.74205V5.69469Z" fill="black"/>
<path d="M11.6997 2.9518C11.6997 2.6368 11.7579 2.34119 11.879 2.06496C12.0001 1.78874 12.1649 1.54159 12.3732 1.33321C12.5816 1.12483 12.8287 0.960063 13.1049 0.838912C13.3811 0.71776 13.6767 0.659607 13.9916 0.659607C14.3066 0.659607 14.6022 0.71776 14.8784 0.838912C15.1546 0.960063 15.4017 1.12483 15.61 1.33321C15.8184 1.54159 15.9831 1.78874 16.1043 2.06496C16.2254 2.34119 16.2836 2.6368 16.2836 2.9518C16.2836 3.26679 16.2254 3.5624 16.1043 3.83862C15.9831 4.11485 15.8184 4.362 15.61 4.57038C15.4017 4.77876 15.1546 4.94353 14.8784 5.06468C14.6022 5.18583 14.3066 5.24398 13.9916 5.24398C13.6767 5.24398 13.3811 5.18583 13.1049 5.06468C12.8287 4.94353 12.5816 4.77876 12.3732 4.57038C12.1649 4.362 12.0001 4.11485 11.879 3.83862C11.7579 3.5624 11.6997 3.26679 11.6997 2.9518ZM16.0461 7.38594V18.9341H11.9711V7.38594H16.0461Z" fill="black"/>
<path d="M18.8368 7.38597H22.9119V8.84948C23.4691 8.17588 24.0312 7.72035 24.5981 7.48774C25.1699 7.25513 25.8386 7.13882 26.5993 7.13882C27.4085 7.13882 28.1063 7.26967 28.6829 7.53136C29.2595 7.79304 29.7538 8.16619 30.1559 8.64595C30.4854 9.03848 30.7132 9.46978 30.8295 9.94954C30.9506 10.4293 31.0088 10.9769 31.0088 11.5924V18.9341H26.9337V13.1043C26.9337 12.5325 26.8901 12.0721 26.8077 11.7184C26.7253 11.3646 26.5799 11.0835 26.3667 10.8751C26.1875 10.6958 25.9839 10.5698 25.7611 10.4923C25.5382 10.4196 25.2959 10.3808 25.0391 10.3808C24.351 10.3808 23.818 10.5892 23.4497 11.0011C23.0815 11.4131 22.8974 12.0043 22.8974 12.7699V18.939H18.8223V7.39082L18.8368 7.38597Z" fill="black"/>
<path d="M33.5142 2.9518C33.5142 2.6368 33.5723 2.34119 33.6934 2.06496C33.8146 1.78874 33.9793 1.54159 34.1877 1.33321C34.396 1.12483 34.6432 0.960063 34.9194 0.838912C35.1956 0.71776 35.4911 0.659607 35.8061 0.659607C36.1211 0.659607 36.4166 0.71776 36.6928 0.838912C36.969 0.960063 37.2161 1.12483 37.4245 1.33321C37.6329 1.54159 37.7976 1.78874 37.9187 2.06496C38.0399 2.34119 38.098 2.6368 38.098 2.9518C38.098 3.26679 38.0399 3.5624 37.9187 3.83862C37.7976 4.11485 37.6329 4.362 37.4245 4.57038C37.2161 4.77876 36.969 4.94353 36.6928 5.06468C36.4166 5.18583 36.1211 5.24398 35.8061 5.24398C35.4911 5.24398 35.1956 5.18583 34.9194 5.06468C34.6432 4.94353 34.396 4.77876 34.1877 4.57038C33.9793 4.362 33.8146 4.11485 33.6934 3.83862C33.5723 3.5624 33.5142 3.26679 33.5142 2.9518ZM37.8606 7.38594V18.9341H33.7855V7.38594H37.8606Z" fill="black"/>
<path d="M47.8087 5.69469V18.9341H43.3945V5.69469H39.77V1.95837H51.4332V5.69469H47.8087Z" fill="#93278F"/>
<path d="M52.5327 7.38597H56.6078V9.27593C57.0439 8.58779 57.5769 8.05473 58.2068 7.68642C58.8367 7.31812 59.5733 7.13397 60.4115 7.13397H60.7604C60.8864 7.13397 61.0318 7.14851 61.2014 7.17759V11.0738C60.6587 10.8024 60.0772 10.6668 59.4473 10.6668C58.5024 10.6668 57.7901 10.9478 57.3201 11.51C56.8452 12.0721 56.6126 12.8959 56.6126 13.9766V18.9293H52.5376V7.38112L52.5327 7.38597Z" fill="#93278F"/>
<path d="M66.8272 13.8458C66.8272 15.6 67.6509 16.482 69.3032 16.482C70.1899 16.482 70.8586 16.1234 71.3044 15.4014H75.2438C74.4492 18.0425 72.4577 19.3654 69.279 19.3654C68.305 19.3654 67.4086 19.2201 66.5994 18.9244C65.7902 18.6337 65.0925 18.2169 64.5158 17.6742C63.9392 17.1314 63.4934 16.4869 63.1785 15.7357C62.8635 14.9846 62.7036 14.1462 62.7036 13.2158C62.7036 12.2853 62.8538 11.3888 63.1542 10.6135C63.4547 9.84293 63.8811 9.18386 64.4383 8.6411C64.9955 8.09834 65.6642 7.68643 66.454 7.39082C67.2439 7.10006 68.1306 6.94983 69.1191 6.94983C70.1076 6.94983 70.9749 7.09521 71.755 7.39082C72.5352 7.68158 73.1942 8.10804 73.7369 8.66049C74.2796 9.21294 74.6914 9.89623 74.9725 10.6958C75.2584 11.5003 75.3989 12.4016 75.3989 13.4096V13.8361H66.8223L66.8272 13.8458ZM71.6 11.4809C71.4643 10.9091 71.1881 10.4535 70.7666 10.1095C70.345 9.76539 69.8362 9.59093 69.2354 9.59093C68.6055 9.59093 68.0918 9.7557 67.6945 10.0852C67.2972 10.4148 67.0452 10.88 66.9386 11.4809H71.6Z" fill="#93278F"/>
<path d="M81.7997 0.247711V11.5487L86.0783 7.38596H91.6603L85.8748 12.7215L91.9995 18.9341H86.2818L81.7997 14.2286V18.9341H77.7246V0.247711H81.7997Z" fill="#93278F"/>
<path d="M2.83279 22.8013H1.68925V27.1482H1.1514V22.8013H0.0126953V22.3167H2.83279V22.8013Z" fill="#93278F"/>
<path d="M5.38595 25.8543C5.38595 26.334 5.28904 26.683 5.09522 26.9059C4.9014 27.1288 4.60098 27.2403 4.19396 27.2403C3.78693 27.2403 3.48167 27.1288 3.28784 26.9059C3.09402 26.683 3.00195 26.334 3.00195 25.8543V24.1533H3.51558V25.8349C3.51558 26.1547 3.56888 26.3874 3.67064 26.5279C3.77239 26.6684 3.94683 26.746 4.19396 26.746C4.44108 26.746 4.61552 26.6733 4.71727 26.5327C4.81903 26.3922 4.86748 26.1596 4.86748 25.8349V24.1533H5.38595V25.8543Z" fill="#93278F"/>
<path d="M7.96869 24.1194L7.84755 24.6282C7.80879 24.604 7.77003 24.5895 7.72642 24.5749C7.68281 24.5652 7.63435 24.5555 7.5859 24.5555C7.33393 24.5555 7.14495 24.6622 7.01412 24.8802C6.88814 25.0983 6.8203 25.4181 6.8203 25.8494V27.1433H6.31152V24.1533H6.8203V24.6767C6.89299 24.4635 6.99959 24.3036 7.13526 24.2066C7.27094 24.1097 7.45507 24.0612 7.68765 24.0612C7.74095 24.0612 7.79425 24.0661 7.84755 24.0758C7.90085 24.0855 7.93962 24.1 7.96869 24.1146V24.1194Z" fill="#93278F"/>
<path d="M10.8321 27.1433H10.3185V25.3551C10.3185 25.0644 10.2652 24.8512 10.1634 24.7155C10.0617 24.5798 9.89695 24.5119 9.66921 24.5119C9.4124 24.5119 9.21857 24.6137 9.0829 24.8172C8.94722 25.0208 8.87939 25.3164 8.87939 25.7041V27.1385H8.37061V24.1485H8.87939V24.5895C8.96661 24.4102 9.09259 24.2793 9.25249 24.1921C9.4124 24.1049 9.61106 24.0612 9.8388 24.0612C10.1441 24.0612 10.3863 24.163 10.5608 24.3666C10.7352 24.5701 10.8224 24.8512 10.8224 25.2195V27.1482L10.8321 27.1433Z" fill="#93278F"/>
<path d="M12.4707 22.9757C12.4707 23.0727 12.4367 23.155 12.3641 23.2229C12.2962 23.2907 12.209 23.3247 12.1169 23.3247C12.0249 23.3247 11.9377 23.2907 11.8698 23.2229C11.802 23.155 11.7681 23.0727 11.7681 22.9757C11.7681 22.8788 11.802 22.7964 11.8698 22.7286C11.9377 22.6607 12.02 22.622 12.1169 22.622C12.2139 22.622 12.2962 22.6559 12.3641 22.7286C12.4319 22.7964 12.4707 22.8837 12.4707 22.9757ZM12.3738 27.1482H11.8601V24.1582H12.3738V27.1482Z" fill="#93278F"/>
<path d="M15.8912 27.1433H15.3776V25.3551C15.3776 25.0644 15.3243 24.8512 15.2225 24.7155C15.1208 24.5798 14.956 24.5119 14.7283 24.5119C14.4715 24.5119 14.2777 24.6137 14.142 24.8172C14.0063 25.0208 13.9385 25.3164 13.9385 25.7041V27.1385H13.4297V24.1485H13.9385V24.5895C14.0257 24.4102 14.1517 24.2793 14.3116 24.1921C14.4715 24.1049 14.6701 24.0612 14.8979 24.0612C15.2031 24.0612 15.4454 24.163 15.6199 24.3666C15.7943 24.5701 15.8815 24.8512 15.8815 25.2195V27.1482L15.8912 27.1433Z" fill="#93278F"/>
<path d="M19.5744 27.3033C19.5744 27.8363 19.4532 28.2337 19.2109 28.4905C18.9687 28.7474 18.5907 28.8734 18.0771 28.8734C17.6749 28.8734 17.3551 28.7861 17.1128 28.6117C16.8754 28.4372 16.73 28.1949 16.6864 27.8799H17.2194C17.2533 28.0447 17.3406 28.1707 17.4859 28.2579C17.6313 28.3403 17.83 28.3839 18.0819 28.3839C18.4308 28.3839 18.6828 28.3015 18.833 28.1368C18.9832 27.972 19.0607 27.7103 19.0607 27.3469V26.6442C18.959 26.838 18.8136 26.9834 18.6295 27.0852C18.4453 27.1869 18.2273 27.2354 17.9753 27.2354C17.5586 27.2354 17.2146 27.0852 16.9481 26.7799C16.6816 26.4794 16.5459 26.0917 16.5459 25.6168C16.5459 25.1419 16.6816 24.7785 16.9529 24.4877C17.2243 24.1969 17.5683 24.0515 17.9947 24.0515C18.237 24.0515 18.4453 24.1 18.6295 24.1921C18.8136 24.2842 18.959 24.4198 19.0656 24.5943V24.1388H19.5792V27.2887L19.5744 27.3033ZM19.0607 25.612C19.0607 25.2824 18.9687 25.0256 18.7894 24.8366C18.6101 24.6476 18.3678 24.5507 18.0674 24.5507C17.767 24.5507 17.5247 24.6476 17.3406 24.8463C17.1516 25.045 17.0595 25.3067 17.0595 25.6314C17.0595 25.956 17.1516 26.2274 17.3357 26.4358C17.5198 26.6442 17.7573 26.746 18.0432 26.746C18.329 26.746 18.5762 26.6393 18.77 26.4261C18.9638 26.2129 19.0607 25.9415 19.0607 25.612Z" fill="#93278F"/>
<path d="M26.3669 26.8332C26.1876 26.9495 25.9501 27.0464 25.6497 27.124C25.3493 27.2015 25.0779 27.2451 24.8308 27.2451C24.0895 27.2451 23.4789 27.0077 22.9895 26.5327C22.5001 26.0578 22.2627 25.4569 22.2627 24.7252C22.2627 23.9934 22.5098 23.4216 23.0041 22.9418C23.4983 22.4621 24.1088 22.2198 24.8357 22.2198C25.1361 22.2198 25.422 22.2585 25.6885 22.3312C25.955 22.4039 26.1827 22.5105 26.362 22.6414V23.2471C26.1633 23.0872 25.9356 22.9612 25.6739 22.8691C25.4123 22.7771 25.1555 22.7286 24.8987 22.7286C24.3027 22.7286 23.8036 22.9176 23.4014 23.3004C22.9992 23.6833 22.7957 24.1582 22.7957 24.73C22.7957 25.3019 22.9895 25.7865 23.3772 26.1693C23.7648 26.5521 24.2445 26.7411 24.8163 26.7411C25.0973 26.7411 25.3784 26.6927 25.6546 26.6006C25.9356 26.5085 26.1682 26.3825 26.362 26.2178V26.8332H26.3669Z" fill="#93278F"/>
<path d="M29.9242 25.6411C29.9242 26.0869 29.7692 26.4649 29.4591 26.775C29.1489 27.0852 28.771 27.2403 28.3252 27.2403C27.8794 27.2403 27.5063 27.0852 27.201 26.775C26.8909 26.4649 26.7407 26.0869 26.7407 25.6411C26.7407 25.1952 26.8909 24.8221 27.1962 24.5168C27.5015 24.2163 27.8794 24.0612 28.3252 24.0612C28.771 24.0612 29.1586 24.2115 29.4639 24.5168C29.7692 24.8221 29.9242 25.1952 29.9242 25.6362V25.6411ZM29.4155 25.6411C29.4155 25.3261 29.3088 25.0644 29.1005 24.8608C28.8921 24.6573 28.6353 24.5507 28.3301 24.5507C28.0248 24.5507 27.7631 24.6525 27.5596 24.8608C27.3513 25.0644 27.2495 25.3261 27.2495 25.6411C27.2495 25.9561 27.3561 26.2226 27.5645 26.4358C27.7728 26.649 28.0296 26.7557 28.3301 26.7557C28.6305 26.7557 28.897 26.649 29.1053 26.4358C29.3137 26.2226 29.4155 25.9561 29.4155 25.6411Z" fill="#93278F"/>
<path d="M34.5806 27.1433H34.067V25.3503C34.067 25.0644 34.0185 24.856 33.9265 24.7203C33.8344 24.5846 33.689 24.5168 33.4952 24.5168C33.2626 24.5168 33.093 24.604 32.9913 24.7785C32.8895 24.9529 32.8411 25.2485 32.8411 25.6653V27.1433H32.3323V25.3503C32.3323 25.0498 32.2935 24.8366 32.2111 24.7058C32.1288 24.5749 31.9882 24.5119 31.7896 24.5119C31.5521 24.5119 31.3777 24.6089 31.2663 24.8027C31.1548 24.9965 31.0967 25.2922 31.0967 25.6992V27.1433H30.5879V24.1533H31.0967V24.5507C31.1742 24.3859 31.2808 24.2648 31.4262 24.1824C31.5667 24.1 31.746 24.0612 31.9592 24.0612C32.153 24.0612 32.3226 24.1049 32.4631 24.1969C32.6036 24.2842 32.7005 24.415 32.7635 24.5895C32.8411 24.4199 32.9622 24.289 33.1173 24.1969C33.2723 24.1049 33.4613 24.0612 33.6745 24.0612C33.9604 24.0612 34.1881 24.1582 34.348 24.352C34.5079 24.5459 34.5903 24.8221 34.5903 25.1758V27.1433H34.5806Z" fill="#93278F"/>
<path d="M39.4986 27.1433H38.9849V25.3503C38.9849 25.0644 38.9365 24.856 38.8444 24.7203C38.7524 24.5846 38.607 24.5168 38.4132 24.5168C38.1806 24.5168 38.011 24.604 37.9092 24.7785C37.8075 24.9529 37.759 25.2485 37.759 25.6653V27.1433H37.2503V25.3503C37.2503 25.0498 37.2115 24.8366 37.1291 24.7058C37.0467 24.5749 36.9062 24.5119 36.7076 24.5119C36.4701 24.5119 36.2957 24.6089 36.1842 24.8027C36.0728 24.9965 36.0146 25.2922 36.0146 25.6992V27.1433H35.5059V24.1533H36.0146V24.5507C36.0922 24.3859 36.1988 24.2648 36.3441 24.1824C36.4847 24.1 36.6639 24.0612 36.8771 24.0612C37.071 24.0612 37.2406 24.1049 37.3811 24.1969C37.5216 24.2842 37.6185 24.415 37.6815 24.5895C37.759 24.4199 37.8802 24.289 38.0352 24.1969C38.1903 24.1049 38.3793 24.0612 38.5925 24.0612C38.8783 24.0612 39.1061 24.1582 39.266 24.352C39.4259 24.5459 39.5083 24.8221 39.5083 25.1758V27.1433H39.4986Z" fill="#93278F"/>
<path d="M42.7307 25.8543C42.7307 26.334 42.6338 26.683 42.4399 26.9059C42.2461 27.1288 41.9457 27.2403 41.5387 27.2403C41.1317 27.2403 40.8264 27.1288 40.6326 26.9059C40.4387 26.683 40.3467 26.334 40.3467 25.8543V24.1533H40.8603V25.8349C40.8603 26.1547 40.9136 26.3874 41.0154 26.5279C41.1171 26.6684 41.2916 26.746 41.5387 26.746C41.7858 26.746 41.9602 26.6733 42.062 26.5327C42.1637 26.3922 42.2122 26.1596 42.2122 25.8349V24.1533H42.7307V25.8543Z" fill="#93278F"/>
<path d="M44.6205 24.6137H44.1457V27.1433H43.6369V24.6137H43.2783V24.1533H43.6369V22.9418H44.1457V24.1533H44.6205V24.6137Z" fill="#93278F"/>
<path d="M47.7749 25.7283H45.3715C45.3909 26.053 45.4878 26.3001 45.6574 26.4794C45.827 26.6587 46.0596 26.746 46.3455 26.746C46.5635 26.746 46.7525 26.7024 46.9027 26.6151C47.0529 26.5279 47.1789 26.3971 47.2661 26.2274L47.6925 26.4504C47.5569 26.712 47.3727 26.9059 47.145 27.0416C46.9173 27.1724 46.6459 27.2403 46.3358 27.2403C45.8852 27.2403 45.5266 27.0949 45.2601 26.7993C44.9936 26.5037 44.8579 26.116 44.8579 25.6314C44.8579 25.1807 44.9984 24.8075 45.2843 24.5071C45.5654 24.2066 45.9191 24.0612 46.3309 24.0612C46.7428 24.0612 47.1014 24.1969 47.3679 24.4732C47.6344 24.7445 47.7701 25.1032 47.7701 25.549V25.7283H47.7749ZM47.2661 25.3648C47.2371 25.108 47.145 24.9093 46.9803 24.7639C46.8155 24.6185 46.6023 24.5507 46.3406 24.5507C46.079 24.5507 45.8755 24.6234 45.701 24.7736C45.5266 24.9238 45.4248 25.1177 45.3909 25.3648H47.271H47.2661Z" fill="#93278F"/>
<path d="M50.2366 26.3389C50.2366 26.6151 50.1349 26.8332 49.9362 26.998C49.7375 27.1627 49.4613 27.2451 49.1173 27.2451C48.8557 27.2451 48.6376 27.1918 48.4535 27.0852C48.2742 26.9786 48.1434 26.8284 48.0562 26.6248L48.4922 26.3486C48.5504 26.494 48.6376 26.6006 48.7442 26.6733C48.8508 26.746 48.9865 26.7799 49.1464 26.7799C49.3208 26.7799 49.4614 26.7411 49.568 26.6684C49.6697 26.5957 49.723 26.494 49.723 26.368C49.723 26.2274 49.6746 26.1208 49.5825 26.0481C49.4856 25.9754 49.3015 25.8882 49.0253 25.7913C48.7539 25.6895 48.5552 25.5684 48.4196 25.4181C48.2839 25.2679 48.2161 25.0935 48.2161 24.8948C48.2161 24.6379 48.3033 24.4344 48.4729 24.2842C48.6473 24.1339 48.8847 24.0612 49.1948 24.0612C49.4226 24.0612 49.6067 24.1049 49.7569 24.1969C49.9071 24.289 50.0283 24.4296 50.1155 24.6234L49.6939 24.8802C49.6406 24.7542 49.5728 24.6622 49.4856 24.604C49.4032 24.5459 49.2966 24.5168 49.1706 24.5168C49.0253 24.5168 48.9138 24.5507 48.8314 24.6137C48.7491 24.6767 48.7103 24.7688 48.7103 24.8802C48.7103 24.9917 48.7539 25.0886 48.8363 25.1662C48.9187 25.2437 49.0737 25.3164 49.2966 25.3891C49.6261 25.4957 49.8635 25.6217 50.0089 25.7671C50.1543 25.9124 50.2269 26.1014 50.2269 26.3292L50.2366 26.3389Z" fill="#93278F"/>
<path d="M53.6621 22.9757C53.6621 23.0727 53.6282 23.155 53.5555 23.2229C53.4876 23.2907 53.4004 23.3247 53.3084 23.3247C53.2163 23.3247 53.1291 23.2907 53.0612 23.2229C52.9934 23.155 52.9595 23.0727 52.9595 22.9757C52.9595 22.8788 52.9934 22.7964 53.0612 22.7286C53.1291 22.6607 53.2114 22.622 53.3084 22.622C53.4053 22.622 53.4876 22.6559 53.5555 22.7286C53.6233 22.7964 53.6621 22.8837 53.6621 22.9757ZM53.5652 27.1482H53.0515V24.1582H53.5652V27.1482Z" fill="#93278F"/>
<path d="M57.0831 27.1433H56.5695V25.3551C56.5695 25.0644 56.5162 24.8512 56.4144 24.7155C56.3127 24.5798 56.1479 24.5119 55.9202 24.5119C55.6634 24.5119 55.4695 24.6137 55.3339 24.8172C55.1982 25.0208 55.1304 25.3164 55.1304 25.7041V27.1385H54.6216V24.1485H55.1304V24.5895C55.2176 24.4102 55.3436 24.2793 55.5035 24.1921C55.6634 24.1049 55.862 24.0612 56.0898 24.0612C56.3951 24.0612 56.6373 24.163 56.8118 24.3666C56.9862 24.5701 57.0734 24.8512 57.0734 25.2195V27.1482L57.0831 27.1433Z" fill="#93278F"/>
<path d="M58.9731 24.6137H58.4982V27.1433H57.9894V24.6137H57.6309V24.1533H57.9894V22.9418H58.4982V24.1533H58.9731V24.6137Z" fill="#93278F"/>
<path d="M62.4037 25.6411C62.4037 26.0869 62.2487 26.4649 61.9386 26.775C61.6284 27.0852 61.2505 27.2403 60.8047 27.2403C60.3589 27.2403 59.9858 27.0852 59.6805 26.775C59.3704 26.4649 59.2202 26.0869 59.2202 25.6411C59.2202 25.1952 59.3704 24.8221 59.6757 24.5168C59.981 24.2163 60.3589 24.0612 60.8047 24.0612C61.2505 24.0612 61.6381 24.2115 61.9434 24.5168C62.2487 24.8221 62.4037 25.1952 62.4037 25.6362V25.6411ZM61.8949 25.6411C61.8949 25.3261 61.7883 25.0644 61.58 24.8608C61.3716 24.6573 61.1148 24.5507 60.8095 24.5507C60.5043 24.5507 60.2426 24.6525 60.0391 24.8608C59.8308 25.0644 59.729 25.3261 59.729 25.6411C59.729 25.9561 59.8356 26.2226 60.044 26.4358C60.2523 26.649 60.5091 26.7557 60.8095 26.7557C61.11 26.7557 61.3765 26.649 61.5848 26.4358C61.7932 26.2226 61.8949 25.9561 61.8949 25.6411Z" fill="#93278F"/>
<path d="M70.0499 27.1434H69.5072L69.042 23.848L67.4575 27.2791L65.873 23.848L65.4079 27.1434H64.8555L65.6308 22.1761L67.4624 26.1305L69.2794 22.1761L70.045 27.1434H70.0499Z" fill="#93278F"/>
<path d="M73.4414 25.7283H71.0381C71.0574 26.053 71.1543 26.3001 71.3239 26.4794C71.4935 26.6587 71.7261 26.746 72.012 26.746C72.23 26.746 72.419 26.7024 72.5692 26.6151C72.7194 26.5279 72.8454 26.3971 72.9326 26.2274L73.359 26.4504C73.2234 26.712 73.0392 26.9059 72.8115 27.0416C72.5838 27.1724 72.3124 27.2403 72.0023 27.2403C71.5517 27.2403 71.1931 27.0949 70.9266 26.7993C70.6601 26.5037 70.5244 26.116 70.5244 25.6314C70.5244 25.1807 70.6649 24.8075 70.9508 24.5071C71.2319 24.2066 71.5856 24.0612 71.9975 24.0612C72.4093 24.0612 72.7679 24.1969 73.0344 24.4732C73.3009 24.7445 73.4366 25.1032 73.4366 25.549V25.7283H73.4414ZM72.9326 25.3648C72.9036 25.108 72.8115 24.9093 72.6468 24.7639C72.482 24.6185 72.2688 24.5507 72.0072 24.5507C71.7455 24.5507 71.542 24.6234 71.3675 24.7736C71.1931 24.9238 71.0913 25.1177 71.0574 25.3648H72.9375H72.9326Z" fill="#93278F"/>
<path d="M78.0977 27.1433H77.5841V25.3503C77.5841 25.0644 77.5356 24.856 77.4436 24.7203C77.3515 24.5846 77.2061 24.5168 77.0123 24.5168C76.7797 24.5168 76.6101 24.604 76.5084 24.7785C76.4066 24.9529 76.3581 25.2485 76.3581 25.6653V27.1433H75.8494V25.3503C75.8494 25.0498 75.8106 24.8366 75.7282 24.7058C75.6459 24.5749 75.5053 24.5119 75.3067 24.5119C75.0692 24.5119 74.8948 24.6089 74.7834 24.8027C74.6719 24.9965 74.6138 25.2922 74.6138 25.6992V27.1433H74.105V24.1533H74.6138V24.5507C74.6913 24.3859 74.7979 24.2648 74.9433 24.1824C75.0838 24.1 75.2631 24.0612 75.4763 24.0612C75.6701 24.0612 75.8397 24.1049 75.9802 24.1969C76.1207 24.2842 76.2176 24.415 76.2806 24.5895C76.3581 24.4199 76.4793 24.289 76.6343 24.1969C76.7894 24.1049 76.9784 24.0612 77.1916 24.0612C77.4775 24.0612 77.7052 24.1582 77.8651 24.352C78.025 24.5459 78.1074 24.8221 78.1074 25.1758V27.1433H78.0977Z" fill="#93278F"/>
<path d="M81.9403 25.6411C81.9403 26.0869 81.7853 26.4649 81.4752 26.775C81.1651 27.0852 80.7871 27.2403 80.3413 27.2403C79.8955 27.2403 79.5224 27.0852 79.2172 26.775C78.907 26.4649 78.7568 26.0869 78.7568 25.6411C78.7568 25.1952 78.907 24.8221 79.2123 24.5168C79.5176 24.2163 79.8955 24.0612 80.3413 24.0612C80.7871 24.0612 81.1747 24.2115 81.48 24.5168C81.7853 24.8221 81.9403 25.1952 81.9403 25.6362V25.6411ZM81.4316 25.6411C81.4316 25.3261 81.325 25.0644 81.1166 24.8608C80.9082 24.6573 80.6514 24.5507 80.3462 24.5507C80.0409 24.5507 79.7792 24.6525 79.5757 24.8608C79.3674 25.0644 79.2656 25.3261 79.2656 25.6411C79.2656 25.9561 79.3722 26.2226 79.5806 26.4358C79.7889 26.649 80.0457 26.7557 80.3462 26.7557C80.6466 26.7557 80.9131 26.649 81.1215 26.4358C81.3298 26.2226 81.4316 25.9561 81.4316 25.6411Z" fill="#93278F"/>
<path d="M84.2514 24.1194L84.1303 24.6282C84.0915 24.604 84.0527 24.5895 84.0091 24.5749C83.9655 24.5652 83.9171 24.5555 83.8686 24.5555C83.6166 24.5555 83.4277 24.6622 83.2968 24.8802C83.1709 25.0983 83.103 25.4181 83.103 25.8494V27.1433H82.5942V24.1533H83.103V24.6767C83.1757 24.4635 83.2823 24.3036 83.418 24.2066C83.5537 24.1097 83.7378 24.0612 83.9704 24.0612C84.0237 24.0612 84.077 24.0661 84.1303 24.0758C84.1836 24.0855 84.2223 24.1 84.2514 24.1146V24.1194Z" fill="#93278F"/>
<path d="M85.313 22.9757C85.313 23.0727 85.279 23.155 85.2064 23.2229C85.1385 23.2907 85.0513 23.3247 84.9592 23.3247C84.8672 23.3247 84.78 23.2907 84.7121 23.2229C84.6443 23.155 84.6104 23.0727 84.6104 22.9757C84.6104 22.8788 84.6443 22.7964 84.7121 22.7286C84.78 22.6607 84.8623 22.622 84.9592 22.622C85.0561 22.622 85.1385 22.6559 85.2064 22.7286C85.2742 22.7964 85.313 22.8837 85.313 22.9757ZM85.216 27.1482H84.7024V24.1582H85.216V27.1482Z" fill="#93278F"/>
<path d="M88.8506 25.7283H86.4472C86.4666 26.053 86.5635 26.3001 86.7331 26.4794C86.9027 26.6587 87.1353 26.746 87.4212 26.746C87.6392 26.746 87.8282 26.7024 87.9784 26.6151C88.1286 26.5279 88.2546 26.3971 88.3418 26.2274L88.7682 26.4504C88.6326 26.712 88.4484 26.9059 88.2207 27.0416C87.9929 27.1724 87.7216 27.2403 87.4115 27.2403C86.9608 27.2403 86.6023 27.0949 86.3358 26.7993C86.0693 26.5037 85.9336 26.116 85.9336 25.6314C85.9336 25.1807 86.0741 24.8075 86.36 24.5071C86.641 24.2066 86.9948 24.0612 87.4066 24.0612C87.8185 24.0612 88.1771 24.1969 88.4436 24.4732C88.7101 24.7445 88.8458 25.1032 88.8458 25.549V25.7283H88.8506ZM88.3418 25.3648C88.3127 25.108 88.2207 24.9093 88.0559 24.7639C87.8912 24.6185 87.678 24.5507 87.4163 24.5507C87.1547 24.5507 86.9511 24.6234 86.7767 24.7736C86.6023 24.9238 86.5005 25.1177 86.4666 25.3648H88.3467H88.3418Z" fill="#93278F"/>
<path d="M91.3118 26.3389C91.3118 26.6151 91.2101 26.8332 91.0114 26.998C90.8127 27.1627 90.5366 27.2451 90.1925 27.2451C89.9309 27.2451 89.7128 27.1918 89.5287 27.0852C89.3494 26.9786 89.2186 26.8284 89.1313 26.6248L89.5674 26.3486C89.6256 26.494 89.7128 26.6006 89.8194 26.6733C89.926 26.746 90.0617 26.7799 90.2216 26.7799C90.396 26.7799 90.5365 26.7411 90.6431 26.6684C90.7449 26.5957 90.7982 26.494 90.7982 26.368C90.7982 26.2274 90.7497 26.1208 90.6577 26.0481C90.5608 25.9754 90.3766 25.8882 90.1005 25.7913C89.8291 25.6895 89.6304 25.5684 89.4948 25.4181C89.3591 25.2679 89.2912 25.0935 89.2912 24.8948C89.2912 24.6379 89.3785 24.4344 89.5481 24.2842C89.7225 24.1339 89.9599 24.0612 90.27 24.0612C90.4978 24.0612 90.6819 24.1049 90.8321 24.1969C90.9823 24.289 91.1035 24.4296 91.1907 24.6234L90.7691 24.8802C90.7158 24.7542 90.648 24.6622 90.5608 24.604C90.4784 24.5459 90.3718 24.5168 90.2458 24.5168C90.1004 24.5168 89.989 24.5507 89.9066 24.6137C89.8242 24.6767 89.7855 24.7688 89.7855 24.8802C89.7855 24.9917 89.8291 25.0886 89.9115 25.1662C89.9938 25.2437 90.1489 25.3164 90.3718 25.3891C90.7013 25.4957 90.9387 25.6217 91.0841 25.7671C91.2295 25.9124 91.3021 26.1014 91.3021 26.3292L91.3118 26.3389Z" fill="#93278F"/>
</svg>
