<svg width="40" height="36" viewBox="0 0 40 36" fill="none" xmlns="http://www.w3.org/2000/svg">
<path d="M11.8008 14.7847H12.3226" stroke="white" stroke-width="0.48" stroke-miterlimit="10"/>
<path d="M13.3442 14.7847H31.2313" stroke="white" stroke-width="0.48" stroke-miterlimit="10"/>
<path d="M31.7422 14.7847H32.264" stroke="white" stroke-width="0.48" stroke-miterlimit="10"/>
<path d="M33.4681 17.9946C33.4681 18.2065 33.3623 18.3336 33.2893 18.4713C31.3736 22.1861 29.447 25.8973 27.5423 29.6156C27.3817 29.9299 27.1883 30.0076 26.849 30.0076C23.0358 29.997 19.2227 30.0076 15.4096 29.9935C15.0374 29.9935 14.9316 30.0853 14.9352 30.449C14.9571 32.1475 14.9352 33.8495 14.9498 35.5479C14.9498 35.8693 14.8951 36.0035 14.5156 35.9999C10.6587 35.9858 6.79808 35.9893 2.94116 35.9964C2.66749 35.9964 2.54707 35.9505 2.54707 35.6468C2.56532 33.5705 2.51423 31.4907 2.57626 29.4143C2.75871 23.5738 7.65193 18.5949 13.6654 18.0617C14.1908 18.0158 14.7126 17.9946 15.2381 17.9946C21.1384 17.9946 27.0387 17.9946 32.939 17.9946H33.4645H33.4681Z" fill="white"/>
<path d="M21.1125 0.00706229C27.1187 0.00706229 33.1248 0.00706229 39.131 0.00706229C39.5202 0.00706229 39.6248 0.181265 39.4448 0.529671C37.5327 4.23031 35.617 7.93095 33.7159 11.6386C33.5736 11.9176 33.4094 12.0024 33.0993 12.0024C27.0347 11.9953 20.9666 12.0094 14.902 11.9918C8.22813 11.9706 2.73649 6.82923 2.55404 0.476704C2.54674 0.0776852 2.65986 0 3.05029 0C9.07103 0.0105934 15.0918 0.00706229 21.1125 0.00706229Z" fill="white"/>
<path d="M23.8059 13.5064C23.8935 13.4816 26.1266 13.1709 26.1266 13.1709H27.703L29.542 13.2097L30.7243 13.8065L30.6659 15.3743L30.1222 16.3948L28.4838 16.4972L26.8236 16.4266L25.8274 16.3948L24.7838 16.4195C24.7838 16.4195 24.2328 16.3631 24.1927 16.2077C24.1525 16.0523 23.8022 13.5099 23.8022 13.5099L23.8059 13.5064Z" fill="#93278F"/>
<path d="M29.115 12.9096C28.637 12.899 28.1589 12.9591 27.6809 12.9732C27.2686 12.9873 26.8563 12.9944 26.4439 12.9767C26.3892 12.9767 26.3345 12.9732 26.2834 12.9767C26.2031 12.9838 26.1922 12.9449 26.2031 12.8814V12.8743C26.2177 12.8107 26.2724 12.726 26.2177 12.6872C26.1447 12.6342 26.0389 12.6589 25.9477 12.673C25.882 12.6836 25.8638 12.7507 25.8419 12.8037C25.7689 12.9767 25.7689 12.9802 25.5718 12.9767C25.331 12.9767 25.0865 12.9944 24.8457 12.9591C24.6852 12.9343 24.5283 12.8814 24.3604 12.8814C23.8787 12.8814 23.4044 12.9026 23.003 13.2027C22.6418 13.4675 22.4228 13.8242 22.3681 14.255C22.3134 14.6823 22.2951 15.1166 22.4265 15.5403C22.6272 16.1971 23.1015 16.5785 23.8058 16.6597C24.1415 16.6985 24.4699 16.7021 24.8019 16.6138C24.9734 16.5714 25.1522 16.5855 25.331 16.5855C25.4478 16.5855 25.5646 16.5855 25.6813 16.5855C25.7506 16.5855 25.7981 16.6032 25.8127 16.6738C25.82 16.7021 25.8309 16.7303 25.8419 16.755C25.9076 16.9139 26.0024 16.9528 26.1703 16.9069C26.225 16.8928 26.2469 16.8645 26.236 16.8115C26.2287 16.7762 26.2177 16.7374 26.2104 16.7021C26.1885 16.6067 26.2031 16.5855 26.3016 16.5855C26.7906 16.582 27.2759 16.5714 27.7649 16.5961C28.1991 16.6209 28.6297 16.6597 29.0639 16.6632C29.5528 16.6632 30.0381 16.6279 30.5089 16.4902C30.6329 16.4549 30.757 16.4231 30.881 16.3913C30.9832 16.3666 31.0489 16.3066 31.0817 16.2112C31.1547 16.0029 31.1766 15.7875 31.1985 15.5721C31.2277 15.2402 31.2386 14.9082 31.2277 14.5728C31.2168 14.1879 31.2022 13.803 31.1109 13.4252C31.0708 13.2663 30.9796 13.1815 30.8154 13.1391C30.4432 13.0473 30.0746 12.9555 29.6915 12.9096C29.5018 12.8849 29.3084 12.9096 29.1186 12.899L29.115 12.9096ZM24.6012 14.8341C24.5939 14.6928 24.6012 14.5551 24.6195 14.4174C24.6487 14.1667 24.7107 13.9266 24.8676 13.7218C24.9844 13.5699 25.1267 13.4569 25.342 13.4781C25.5755 13.5029 25.8127 13.5346 26.0353 13.6123C26.1849 13.6653 26.2396 13.7394 26.2396 13.8913C26.2396 14.4951 26.2396 15.0954 26.2396 15.6992C26.2396 15.7946 26.1995 15.8652 26.1155 15.9182C26.0645 15.9499 26.0097 15.9747 25.9513 15.9852C25.7689 16.0206 25.5901 16.0594 25.4076 16.0877C25.2143 16.1194 25.0464 16.0629 24.9223 15.9111C24.8676 15.844 24.8165 15.7769 24.78 15.7028C24.6487 15.4273 24.583 15.1378 24.6012 14.8341ZM29.1113 14.7847C29.1113 14.5198 29.1113 14.2515 29.1113 13.9866C29.1113 13.8383 29.166 13.7853 29.3193 13.7924C29.5273 13.7995 29.7353 13.8418 29.9396 13.8772C30.0783 13.9019 30.1732 13.9725 30.2461 14.082C30.3629 14.2515 30.4103 14.4421 30.4249 14.6399C30.4505 14.9294 30.414 15.2155 30.2607 15.4697C30.1987 15.5721 30.1184 15.6639 29.9834 15.6886C29.7791 15.7239 29.5711 15.7557 29.3631 15.7804C29.1733 15.8052 29.1113 15.7522 29.1113 15.565C29.1113 15.3037 29.1113 15.0424 29.1113 14.7847ZM26.1119 16.2677C26.1593 16.2183 26.2104 16.2077 26.2615 16.1901C26.5461 16.1088 26.838 16.0665 27.1336 16.0347C27.3744 16.01 27.6153 15.9958 27.8561 15.9923C27.94 15.9923 27.9473 16.0241 27.9291 16.0841C27.8889 16.2289 27.8524 16.2536 27.6955 16.2501C27.2759 16.2501 26.8599 16.2289 26.4403 16.2607C26.3308 16.2677 26.2214 16.2607 26.1119 16.2607V16.2677ZM26.1301 13.3192C26.1995 13.3192 26.2688 13.3192 26.3381 13.3192C26.8125 13.3192 27.2832 13.3298 27.7576 13.3122C27.8269 13.3122 27.867 13.3192 27.8889 13.3828C27.8999 13.411 27.9181 13.4393 27.9254 13.4711C27.9583 13.5664 27.951 13.5735 27.8488 13.5735C27.4729 13.5735 27.1008 13.5382 26.7322 13.4781C26.5279 13.4464 26.3199 13.4075 26.1301 13.3192ZM28.356 15.9958C28.4545 15.9958 28.553 15.9958 28.6515 16.0135C28.6953 16.0206 28.761 15.9994 28.772 16.0417C28.7829 16.0841 28.7209 16.1124 28.688 16.1441C28.6844 16.1477 28.6771 16.1512 28.6734 16.1547C28.4837 16.2571 28.2757 16.2677 28.0641 16.2642C28.0312 16.2642 28.0239 16.2501 28.0312 16.2183C28.086 15.9958 28.0933 15.9923 28.3268 15.9958C28.3341 15.9958 28.345 15.9958 28.3523 15.9958H28.356ZM28.7902 13.5346C28.6151 13.5664 28.4509 13.5735 28.2867 13.5735C28.1821 13.5735 28.1127 13.5276 28.0787 13.4358C28.0714 13.4146 28.0604 13.3934 28.0495 13.3722C28.013 13.3157 28.0422 13.3016 28.0969 13.3051C28.2392 13.3051 28.3815 13.3192 28.5238 13.3545C28.6333 13.3793 28.7209 13.4358 28.7939 13.5382L28.7902 13.5346ZM22.9373 13.4146C22.9191 13.6158 22.7914 13.7889 22.6527 13.8065C22.6965 13.6441 22.8206 13.5452 22.9373 13.4146ZM22.6491 15.7628C22.806 15.791 22.9081 15.9323 22.9264 16.1441C22.8242 16.017 22.6965 15.9252 22.6491 15.7628Z" fill="white"/>
<path d="M0.124125 13.796C-0.452407 16.1336 1.03271 18.4041 3.47385 18.9055C3.58696 18.9302 3.70373 18.955 3.81685 18.9761H4.79111C6.56084 18.623 7.90365 17.5778 9.19173 16.4443C9.7792 15.9252 10.2937 15.3391 10.8483 14.7917C9.97625 13.8348 9.03482 12.8002 7.95839 12.0586C7.12643 11.4866 6.25433 10.9781 5.25453 10.7274C3.04327 10.1695 0.671465 11.5925 0.127774 13.796H0.124125ZM5.75443 14.8023C5.75443 15.5827 5.14141 16.183 4.34594 16.1901C3.53953 16.1971 2.91191 15.5862 2.91191 14.7988C2.91191 14.022 3.52858 13.4181 4.32405 13.4111C5.12681 13.404 5.75443 14.0149 5.75443 14.8059V14.8023Z" fill="white"/>
</svg>
