<svg width="53" height="50" viewBox="0 0 53 50" fill="none" xmlns="http://www.w3.org/2000/svg">
<path d="M15.6704 20.2905H16.3633" stroke="#93278F" stroke-width="0.48" stroke-miterlimit="10"/>
<path d="M17.7197 20.2905H41.4725" stroke="#93278F" stroke-width="0.48" stroke-miterlimit="10"/>
<path d="M42.1509 20.2905H42.8438" stroke="#93278F" stroke-width="0.48" stroke-miterlimit="10"/>
<path d="M44.4429 24.6956C44.4429 24.9864 44.3024 25.1608 44.2055 25.3498C41.6616 30.4479 39.1031 35.5411 36.5738 40.644C36.3606 41.0753 36.1037 41.1819 35.6531 41.1819C30.5895 41.1674 25.526 41.1819 20.4624 41.1625C19.9681 41.1625 19.8276 41.2885 19.8325 41.7877C19.8615 44.1186 19.8325 46.4544 19.8519 48.7854C19.8519 49.2264 19.7792 49.4105 19.2752 49.4057C14.1535 49.3863 9.02695 49.3912 3.90524 49.4008C3.54182 49.4008 3.38192 49.3378 3.38192 48.9211C3.40615 46.0716 3.33831 43.2173 3.42068 40.3678C3.66296 32.3524 10.1608 25.5194 18.1462 24.7877C18.844 24.7247 19.5369 24.6956 20.2346 24.6956C28.0699 24.6956 35.9051 24.6956 43.7403 24.6956H44.438H44.4429Z" fill="#93278F"/>
<path d="M28.0359 0.00975316C36.0116 0.00975316 43.9873 0.00975316 51.9631 0.00975316C52.4799 0.00975316 52.6188 0.248826 52.3798 0.72697C49.8407 5.80564 47.2968 10.8843 44.7723 15.9727C44.5833 16.3555 44.3653 16.4718 43.9534 16.4718C35.9002 16.4621 27.8421 16.4815 19.7888 16.4573C10.9263 16.4282 3.63382 9.37235 3.39155 0.65428C3.38186 0.106674 3.53207 6.10352e-05 4.05054 6.10352e-05C12.0457 0.0145992 20.0408 0.00975316 28.0359 0.00975316Z" fill="#93278F"/>
<path d="M31.6118 18.5363C31.7281 18.5024 34.6935 18.0759 34.6935 18.0759H36.7868L39.2289 18.1292L40.7989 18.9482L40.7214 21.0998L39.9994 22.5004L37.8237 22.6409L35.619 22.544L34.2962 22.5004L32.9104 22.5343C32.9104 22.5343 32.1787 22.4567 32.1254 22.2435C32.0721 22.0303 31.6069 18.5411 31.6069 18.5411L31.6118 18.5363Z" fill="white"/>
<path d="M38.6618 17.7173C38.0271 17.7027 37.3923 17.7851 36.7576 17.8045C36.21 17.8239 35.6625 17.8336 35.1149 17.8093C35.0422 17.8093 34.9696 17.8045 34.9017 17.8093C34.7951 17.819 34.7806 17.7657 34.7951 17.6785V17.6688C34.8145 17.5816 34.8872 17.4653 34.8145 17.412C34.7176 17.3393 34.5771 17.3732 34.4559 17.3926C34.3687 17.4071 34.3445 17.4992 34.3154 17.5719C34.2185 17.8093 34.2185 17.8142 33.9568 17.8093C33.637 17.8093 33.3124 17.8336 32.9926 17.7851C32.7794 17.7512 32.571 17.6785 32.3481 17.6785C31.7085 17.6785 31.0786 17.7076 30.5456 18.1195C30.0659 18.4829 29.7752 18.9724 29.7025 19.5636C29.6298 20.15 29.6056 20.746 29.78 21.3276C30.0465 22.2289 30.6764 22.7523 31.6116 22.8638C32.0574 22.9171 32.4935 22.9219 32.9344 22.8008C33.1622 22.7426 33.3996 22.762 33.637 22.762C33.7921 22.762 33.9471 22.762 34.1022 22.762C34.1943 22.762 34.2573 22.7862 34.2766 22.8832C34.2863 22.9219 34.3009 22.9607 34.3154 22.9946C34.4026 23.2127 34.5286 23.266 34.7515 23.203C34.8242 23.1836 34.8533 23.1448 34.8387 23.0722C34.829 23.0237 34.8145 22.9704 34.8048 22.9219C34.7757 22.7911 34.7951 22.762 34.9259 22.762C35.5752 22.7572 36.2197 22.7426 36.869 22.7765C37.4456 22.8105 38.0174 22.8638 38.594 22.8686C39.2433 22.8686 39.8878 22.8202 40.5128 22.6312C40.6776 22.5827 40.8423 22.5391 41.0071 22.4955C41.1427 22.4615 41.23 22.3792 41.2736 22.2483C41.3705 21.9624 41.3996 21.6668 41.4286 21.3712C41.4674 20.9157 41.4819 20.4601 41.4674 19.9997C41.4529 19.4715 41.4335 18.9433 41.3123 18.4248C41.259 18.2067 41.1379 18.0904 40.9199 18.0322C40.4256 17.9062 39.9362 17.7803 39.4274 17.7173C39.1755 17.6833 38.9187 17.7173 38.6667 17.7027L38.6618 17.7173ZM32.6679 20.3584C32.6582 20.1645 32.6679 19.9755 32.6922 19.7865C32.7309 19.4425 32.8133 19.1129 33.0217 18.8318C33.1767 18.6235 33.3657 18.4684 33.6516 18.4975C33.9617 18.5314 34.2766 18.575 34.5722 18.6816C34.7709 18.7543 34.8436 18.8561 34.8436 19.0645C34.8436 19.8931 34.8436 20.717 34.8436 21.5456C34.8436 21.6765 34.7903 21.7734 34.6788 21.8461C34.611 21.8897 34.5383 21.9236 34.4608 21.9382C34.2185 21.9866 33.9811 22.0399 33.7388 22.0787C33.482 22.1223 33.2591 22.0448 33.0943 21.8364C33.0217 21.7443 32.9538 21.6523 32.9054 21.5505C32.7309 21.1725 32.6437 20.7751 32.6679 20.3584ZM38.657 20.2905C38.657 19.9271 38.657 19.5588 38.657 19.1953C38.657 18.9918 38.7297 18.9191 38.9332 18.9288C39.2094 18.9385 39.4856 18.9966 39.7569 19.0451C39.9411 19.079 40.067 19.1759 40.164 19.3261C40.319 19.5588 40.382 19.8204 40.4014 20.0918C40.4353 20.4892 40.3868 20.8817 40.1833 21.2306C40.101 21.3712 39.9944 21.4972 39.8151 21.5311C39.5437 21.5796 39.2675 21.6232 38.9913 21.6571C38.7394 21.691 38.657 21.6183 38.657 21.3615C38.657 21.0029 38.657 20.6443 38.657 20.2905ZM34.674 22.3259C34.737 22.258 34.8048 22.2435 34.8726 22.2192C35.2506 22.1078 35.6382 22.0496 36.0307 22.006C36.3505 21.9721 36.6703 21.9527 36.9901 21.9479C37.1016 21.9479 37.1113 21.9915 37.087 22.0739C37.0337 22.2726 36.9853 22.3065 36.7769 22.3016C36.2197 22.3016 35.6673 22.2726 35.1101 22.3162C34.9647 22.3259 34.8193 22.3162 34.674 22.3162V22.3259ZM34.6982 18.2794C34.7903 18.2794 34.8823 18.2794 34.9744 18.2794C35.6043 18.2794 36.2294 18.2939 36.8593 18.2697C36.9514 18.2697 37.0047 18.2794 37.0337 18.3666C37.0483 18.4054 37.0725 18.4442 37.0822 18.4878C37.1258 18.6186 37.1161 18.6283 36.9804 18.6283C36.4814 18.6283 35.9871 18.5799 35.4977 18.4975C35.2264 18.4539 34.9502 18.4005 34.6982 18.2794ZM37.654 21.9527C37.7848 21.9527 37.9156 21.9527 38.0465 21.9769C38.1046 21.9866 38.1918 21.9576 38.2064 22.0157C38.2209 22.0739 38.1385 22.1126 38.0949 22.1562C38.0901 22.1611 38.0804 22.1659 38.0755 22.1708C37.8236 22.3113 37.5474 22.3259 37.2663 22.321C37.2227 22.321 37.213 22.3016 37.2227 22.258C37.2954 21.9527 37.3051 21.9479 37.6152 21.9527C37.6249 21.9527 37.6394 21.9527 37.6491 21.9527H37.654ZM38.2306 18.575C37.998 18.6186 37.78 18.6283 37.5619 18.6283C37.423 18.6283 37.3309 18.5653 37.2857 18.4393C37.276 18.4102 37.2615 18.3812 37.247 18.3521C37.1985 18.2746 37.2373 18.2552 37.3099 18.26C37.4989 18.26 37.6879 18.2794 37.8769 18.3279C38.0222 18.3618 38.1385 18.4393 38.2354 18.5799L38.2306 18.575ZM30.4584 18.4102C30.4341 18.6865 30.2646 18.9239 30.0804 18.9482C30.1386 18.7252 30.3033 18.5895 30.4584 18.4102ZM30.0756 21.6329C30.2839 21.6716 30.4196 21.8655 30.4438 22.1562C30.3082 21.9818 30.1386 21.8558 30.0756 21.6329Z" fill="black"/>
<path d="M0.164829 18.9336C-0.600764 22.1417 1.37136 25.2577 4.61302 25.9459C4.76323 25.9798 4.91829 26.0137 5.0685 26.0428H6.36225C8.71233 25.5582 10.4955 24.1237 12.206 22.5682C12.9861 21.8558 13.6693 21.0513 14.4058 20.3002C13.2477 18.9869 11.9976 17.567 10.5682 16.5493C9.46339 15.7643 8.30531 15.0665 6.97763 14.7224C4.04125 13.9567 0.891657 15.9097 0.169674 18.9336H0.164829ZM7.64147 20.3147C7.64147 21.3857 6.82742 22.2095 5.7711 22.2192C4.70024 22.2289 3.86681 21.3906 3.86681 20.3099C3.86681 19.2438 4.6857 18.4151 5.74203 18.4054C6.80804 18.3957 7.64147 19.2341 7.64147 20.3196V20.3147Z" fill="black"/>
</svg>
