<svg width="48" height="49" viewBox="0 0 48 49" fill="none" xmlns="http://www.w3.org/2000/svg">
<path d="M43.5 16.7701C43.5 17.5901 42.82 18.2701 42 18.2701H6C5.18 18.2701 4.5 17.5901 4.5 16.7701C4.5 15.9501 5.18 15.2701 6 15.2701H8.04L8.8 11.6501C9.52 8.15005 11.02 4.93005 16.98 4.93005H31.02C36.98 4.93005 38.48 8.15005 39.2 11.6501L39.96 15.2701H42C42.82 15.2701 43.5 15.9501 43.5 16.7701Z" fill="#93278F"/>
<path d="M44.3602 28.09C44.0602 24.79 43.1802 21.27 36.7602 21.27H11.2402C4.82017 21.27 3.96017 24.79 3.64017 28.09L2.52017 40.27C2.38017 41.79 2.88017 43.31 3.92017 44.45C4.98017 45.61 6.48017 46.27 8.08017 46.27H11.8402C15.0802 46.27 15.7002 44.41 16.1002 43.19L16.5002 41.99C16.9602 40.61 17.0802 40.27 18.8802 40.27H29.1202C30.9202 40.27 30.9802 40.47 31.5002 41.99L31.9002 43.19C32.3002 44.41 32.9202 46.27 36.1602 46.27H39.9202C41.5002 46.27 43.0202 45.61 44.0802 44.45C45.1202 43.31 45.6202 41.79 45.4802 40.27L44.3602 28.09ZM18.0002 32.27H12.0002C11.1802 32.27 10.5002 31.59 10.5002 30.77C10.5002 29.95 11.1802 29.27 12.0002 29.27H18.0002C18.8202 29.27 19.5002 29.95 19.5002 30.77C19.5002 31.59 18.8202 32.27 18.0002 32.27ZM36.0002 32.27H30.0002C29.1802 32.27 28.5002 31.59 28.5002 30.77C28.5002 29.95 29.1802 29.27 30.0002 29.27H36.0002C36.8202 29.27 37.5002 29.95 37.5002 30.77C37.5002 31.59 36.8202 32.27 36.0002 32.27Z" fill="#93278F"/>
</svg>
