<svg width="48" height="49" viewBox="0 0 48 49" fill="none" xmlns="http://www.w3.org/2000/svg">
<path d="M33.5 7.89002V4.77002C33.5 3.95002 32.82 3.27002 32 3.27002C31.18 3.27002 30.5 3.95002 30.5 4.77002V7.77002H17.5V4.77002C17.5 3.95002 16.82 3.27002 16 3.27002C15.18 3.27002 14.5 3.95002 14.5 4.77002V7.89002C9.09997 8.39002 6.47997 11.61 6.07997 16.39C6.03997 16.97 6.51997 17.45 7.07997 17.45H40.92C41.5 17.45 41.98 16.95 41.92 16.39C41.52 11.61 38.9 8.39002 33.5 7.89002Z" fill="#93278F"/>
<path d="M40 20.45H8C6.9 20.45 6 21.35 6 22.45V34.77C6 40.77 9 44.77 16 44.77H32C39 44.77 42 40.77 42 34.77V22.45C42 21.35 41.1 20.45 40 20.45ZM18.42 37.19C18.32 37.27 18.22 37.37 18.12 37.43C18 37.51 17.88 37.57 17.76 37.61C17.64 37.67 17.52 37.71 17.4 37.73C17.26 37.75 17.14 37.77 17 37.77C16.74 37.77 16.48 37.71 16.24 37.61C15.98 37.51 15.78 37.37 15.58 37.19C15.22 36.81 15 36.29 15 35.77C15 35.25 15.22 34.73 15.58 34.35C15.78 34.17 15.98 34.03 16.24 33.93C16.6 33.77 17 33.73 17.4 33.81C17.52 33.83 17.64 33.87 17.76 33.93C17.88 33.97 18 34.03 18.12 34.11C18.22 34.19 18.32 34.27 18.42 34.35C18.78 34.73 19 35.25 19 35.77C19 36.29 18.78 36.81 18.42 37.19ZM18.42 30.19C18.04 30.55 17.52 30.77 17 30.77C16.48 30.77 15.96 30.55 15.58 30.19C15.22 29.81 15 29.29 15 28.77C15 28.25 15.22 27.73 15.58 27.35C16.14 26.79 17.02 26.61 17.76 26.93C18.02 27.03 18.24 27.17 18.42 27.35C18.78 27.73 19 28.25 19 28.77C19 29.29 18.78 29.81 18.42 30.19ZM25.42 37.19C25.04 37.55 24.52 37.77 24 37.77C23.48 37.77 22.96 37.55 22.58 37.19C22.22 36.81 22 36.29 22 35.77C22 35.25 22.22 34.73 22.58 34.35C23.32 33.61 24.68 33.61 25.42 34.35C25.78 34.73 26 35.25 26 35.77C26 36.29 25.78 36.81 25.42 37.19ZM25.42 30.19C25.32 30.27 25.22 30.35 25.12 30.43C25 30.51 24.88 30.57 24.76 30.61C24.64 30.67 24.52 30.71 24.4 30.73C24.26 30.75 24.14 30.77 24 30.77C23.48 30.77 22.96 30.55 22.58 30.19C22.22 29.81 22 29.29 22 28.77C22 28.25 22.22 27.73 22.58 27.35C22.76 27.17 22.98 27.03 23.24 26.93C23.98 26.61 24.86 26.79 25.42 27.35C25.78 27.73 26 28.25 26 28.77C26 29.29 25.78 29.81 25.42 30.19ZM32.42 37.19C32.04 37.55 31.52 37.77 31 37.77C30.48 37.77 29.96 37.55 29.58 37.19C29.22 36.81 29 36.29 29 35.77C29 35.25 29.22 34.73 29.58 34.35C30.32 33.61 31.68 33.61 32.42 34.35C32.78 34.73 33 35.25 33 35.77C33 36.29 32.78 36.81 32.42 37.19ZM32.42 30.19C32.32 30.27 32.22 30.35 32.12 30.43C32 30.51 31.88 30.57 31.76 30.61C31.64 30.67 31.52 30.71 31.4 30.73C31.26 30.75 31.12 30.77 31 30.77C30.48 30.77 29.96 30.55 29.58 30.19C29.22 29.81 29 29.29 29 28.77C29 28.25 29.22 27.73 29.58 27.35C29.78 27.17 29.98 27.03 30.24 26.93C30.6 26.77 31 26.73 31.4 26.81C31.52 26.83 31.64 26.87 31.76 26.93C31.88 26.97 32 27.03 32.12 27.11C32.22 27.19 32.32 27.27 32.42 27.35C32.78 27.73 33 28.25 33 28.77C33 29.29 32.78 29.81 32.42 30.19Z" fill="#93278F"/>
</svg>
