<svg width="48" height="49" viewBox="0 0 48 49" fill="none" xmlns="http://www.w3.org/2000/svg">
<path d="M41.24 18.17C39.16 8.91002 31.08 4.77002 24 4.77002C24 4.77002 24 4.77002 23.98 4.77002C16.92 4.77002 8.85999 8.91002 6.75999 18.15C4.39999 28.47 10.72 37.21 16.44 42.73C18.56 44.77 21.28 45.79 24 45.79C26.72 45.79 29.44 44.77 31.54 42.73C37.26 37.21 43.58 28.49 41.24 18.17ZM30.56 19.83L22.56 27.83C22.26 28.13 21.88 28.27 21.5 28.27C21.12 28.27 20.74 28.13 20.44 27.83L17.44 24.83C16.86 24.25 16.86 23.29 17.44 22.71C18.02 22.13 18.98 22.13 19.56 22.71L21.5 24.65L28.44 17.71C29.02 17.13 29.98 17.13 30.56 17.71C31.14 18.29 31.14 19.25 30.56 19.83Z" fill="#93278F"/>
</svg>
